{"title":"Youre.Not.You.2014.720p.WEB-DL.H264.AAC.Raven","uid":11187997,"size":810926289,"categoryP":"video","categoryS":"movies","magnet":"?xt=urn:btih:ce913b1a15d533ef4c056f5b8e606094a286d22f&amp;dn=Youre.Not.You.2014.720p.WEB-DL.H264.AAC.Raven&amp;tr=udp%3A%2F%2Ftracker.openbittorrent.com%3A80&amp;tr=udp%3A%2F%2Fopen.demonii.com%3A1337&amp;tr=udp%3A%2F%2Ftracker.coppersurfer.tk%3A6969&amp;tr=udp%3A%2F%2Fexodus.desync.com%3A6969","seeders":1,"leechers":0,"uploader":"Raven1969","files":-1,"time":1412953906,"description":"Youre.Not.You.2014.720p.WEB-DL.H264.AAC.Raven.\n\n\n\n\n\n\nRuntime:\n104 Mins\n\n\n\nScreen images:\n\n\n &lt;a href=&quot;\nhttp://i.imgur.com/ZtQCDqz.png&quot; rel=&quot;nofollow&quot; target=&quot;_NEW&quot;&gt;\nhttp://i.imgur.com/ZtQCDqz.png&lt;/a&gt;\n\n\n &lt;a href=&quot;\nhttp://i.imgur.com/KeGYrQL.png&quot; rel=&quot;nofollow&quot; target=&quot;_NEW&quot;&gt;\nhttp://i.imgur.com/KeGYrQL.png&lt;/a&gt;\n\n\n &lt;a href=&quot;\nhttp://i.imgur.com/bC8fwtr.png&quot; rel=&quot;nofollow&quot; target=&quot;_NEW&quot;&gt;\nhttp://i.imgur.com/bC8fwtr.png&lt;/a&gt;\n\n\n &lt;a href=&quot;\nhttp://i.imgur.com/fOcSwjf.png&quot; rel=&quot;nofollow&quot; target=&quot;_NEW&quot;&gt;\nhttp://i.imgur.com/fOcSwjf.png&lt;/a&gt;\n\n\n &lt;a href=&quot;\nhttp://i.imgur.com/jjtk8c8.png&quot; rel=&quot;nofollow&quot; target=&quot;_NEW&quot;&gt;\nhttp://i.imgur.com/jjtk8c8.png&lt;/a&gt;\n\n\n\n\nIMDB:\n\n\n\n &lt;a href=&quot;\nhttp://www.imdb.com/title/tt1198156&quot; rel=&quot;nofollow&quot; target=&quot;_NEW&quot;&gt;\nhttp://www.imdb.com/title/tt1198156&lt;/a&gt;\n\n\n\n\nIMDB Rating:  7.9\n\n\n\n\nStoryline:\n\nA drama centered on a classical pianist who has been diagnosed with ALS and the brash college student who becomes her caregiver.\n\nKate is a classical pianist just diagnosed with ALS. Bec is a brash college student and would-be rock singer who can barely keep her wildly chaotic affairs, romantic and otherwise, together. Yet, when Bec takes a job assisting Kate, just as Kate's marriage to Evan hits the skids, both women come to rely on what becomes an unconventional, sometimes confrontational and fiercely honest bond. As meticulous, willful Kate begins to rub off on whirlwind, spontaneous Bec - and vice versa - both women find themselves facing down regrets, exploring new territory and expanding their ideas of who they want to be.\n\n\n\n\nGeneral\nFormat                                   : MPEG-4\nFormat profile                           : Base Media\nCodec ID                                 : isom\nFile size                                : 768 MiB\nDuration                                 : 1h 42mn\nOverall bit rate mode                    : Variable\nOverall bit rate                         : 1 047 Kbps\nEncoded date                             : UTC 2014-10-10 12:03:00\nTagged date                              : UTC 2014-10-10 12:03:00\nWriting application                      : My MP4Box GUI 0.6.0.6 &lt;http://my-mp4box-gui.zymichost.com&gt;\n\nVideo\nID                                       : 1\nFormat                                   : AVC\nFormat/Info                              : Advanced Video Codec\nFormat profile                           : &lt;a class=&quot;__cf_email__&quot; href=&quot;/cdn-cgi/l/email-protection&quot; data-cfemail=&quot;276f4e404f676b130917&quot;&gt;[email&amp;#160;protected]&lt;/a&gt;&lt;script cf-hash='f9e31' type=&quot;text/javascript&quot;&gt;\n/* &lt;![CDATA[ */!function(){try{var t=&quot;currentScript&quot;in document?document.currentScript:function(){for(var t=document.getElementsByTagName(&quot;script&quot;),e=t.length;e--;)if(t[e].getAttribute(&quot;cf-hash&quot;))return t[e]}();if(t&amp;&amp;t.previousSibling){var e,r,n,i,c=t.previousSibling,a=c.getAttribute(&quot;data-cfemail&quot;);if(a){for(e=&quot;&quot;,r=parseInt(a.substr(0,2),16),n=2;a.length-n;n+=2)i=parseInt(a.substr(n,2),16)^r,e+=String.fromCharCode(i);e=document.createTextNode(e),c.parentNode.replaceChild(e,c)}}}catch(u){}}();/* ]]&gt; */&lt;/script&gt;\nFormat settings, CABAC                   : Yes\nFormat settings, ReFrames                : 5 frames\nCodec ID                                 : avc1\nCodec ID/Info                            : Advanced Video Coding\nDuration                                 : 1h 42mn\nBit rate                                 : 950 Kbps\nMaximum bit rate                         : 5 291 Kbps\nWidth                                    : 1 280 pixels\nHeight                                   : 720 pixels\nDisplay aspect ratio                     : 16:9\nFrame rate mode                          : Constant\nFrame rate                               : 23.976 fps\nColor space                              : YUV\nChroma subsampling                       : 4:2:0\nBit depth                                : 8 bits\nScan type                                : Progressive\nBits/(Pixel*Frame)                       : 0.043\nStream size                              : 697 MiB (91%)\nTitle                                    : Youre.Not.You.2014.720p.WEB-DL.H264.AAC.Raven.mp4\nWriting library                          : x264 core 142 \nLanguage                                 : English\nEncoded date                             : UTC 2014-10-10 11:57:43\nTagged date                              : UTC 2014-10-10 12:04:05\n\nAudio\nID                                       : 2\nFormat                                   : AAC\nFormat/Info                              : Advanced Audio Codec\nFormat profile                           : LC\nCodec ID                                 : 40\nDuration                                 : 1h 42mn\nBit rate mode                            : Variable\nBit rate                                 : 93.4 Kbps\nMaximum bit rate                         : 100 Kbps\nChannel(s)                               : 2 channels\nChannel positions                        : Front: L R\nSampling rate                            : 48.0 KHz\nCompression mode                         : Lossy\nStream size                              : 68.5 MiB (9%)\nTitle                                    : Audio AAC LC 96kb.aac\nEncoded date                             : UTC 2014-10-10 12:03:02\nTagged date                              : UTC 2014-10-10 12:04:05\n\n\n\n\nPLEASE  SEED FOR AS LONG AS POSSIBLE TO KEEP THE TORRENT ALIVE :-)\n\n\n\n\n","torrent":{"xt":"urn:btih:ce913b1a15d533ef4c056f5b8e606094a286d22f","amp;dn":"Youre.Not.You.2014.720p.WEB-DL.H264.AAC.Raven","amp;tr":["udp%3A%2F%2Ftracker.openbittorrent.com%3A80","udp%3A%2F%2Fopen.demonii.com%3A1337","udp%3A%2F%2Ftracker.coppersurfer.tk%3A6969","udp%3A%2F%2Fexodus.desync.com%3A6969"],"infoHash":"ce913b1a15d533ef4c056f5b8e606094a286d22f","infoHashBuffer":{"type":"Buffer","data":[206,145,59,26,21,213,51,239,76,5,111,91,142,96,96,148,162,134,210,47]},"announce":[],"urlList":[]}}